<svg width="139" height="120" viewBox="0 0 139 120" fill="none" xmlns="http://www.w3.org/2000/svg">
<path d="M136.304 57.6671H104.849V2.32998C104.849 1.04267 103.807 0 102.519 0H35.5323C34.2449 0 33.2023 1.04267 33.2023 2.32998V57.6671H2.32998C1.04267 57.6671 0 58.7098 0 59.9971V115.917C0 118.357 1.63681 120 4.07747 120H62.9096H67.5695H134.557C136.094 120 137.155 118.94 137.947 118.153C138.384 117.717 138.634 117.122 138.634 116.505V59.9971C138.634 58.7098 137.591 57.6671 136.304 57.6671ZM108.927 62.3271V70.4762H96.6943V62.3271H108.927ZM62.9096 4.65997H75.142L75.1362 12.8149L62.9096 12.8033V4.65997ZM37.8622 4.65997H58.2496V13.3974C58.2496 15.8322 59.8864 17.4749 62.3271 17.4749H75.7245C78.1593 17.4749 79.802 15.8381 79.802 13.3974V4.65997H100.189V57.6671H69.317H37.8622V4.65997ZM29.7073 62.3271H41.9397V70.4762H29.7073V62.3271ZM66.987 115.334H62.9096H4.65997V62.3271H25.0473V71.0645C25.0473 73.5052 26.6841 75.142 29.1248 75.142H42.5222C44.9629 75.142 46.5997 73.5052 46.5997 71.0645V62.3271H66.987V115.334ZM133.974 115.334H71.647V62.3271H92.0344V71.0645C92.0344 73.5052 93.6712 75.142 96.1118 75.142H109.509C111.95 75.142 113.587 73.5052 113.587 71.0645V62.3271H133.974V115.334Z" fill="#FFE8C6"/>
<path d="M109.503 93.7934C108.834 94.5157 108.88 95.6515 109.614 96.3913C110.202 96.9913 111.076 97.102 111.822 96.7758V102.181C111.822 102.834 111.822 103.16 111.833 104.36C111.851 105.525 112.678 106.369 113.796 106.369C113.802 106.369 113.808 106.369 113.814 106.369C114.874 106.364 115.666 105.56 115.748 104.43C115.759 104.284 115.759 104.139 115.754 103.853V102.076C115.754 100.242 115.754 98.9892 115.759 96.7641C116.575 97.1602 117.466 97.0204 118.072 96.3447C118.8 95.5292 118.73 94.4108 117.897 93.5546C117.035 92.6808 116.167 91.8012 115.282 90.945C114.449 90.1411 113.29 90.0712 112.509 90.7935C111.554 91.6789 110.569 92.6633 109.503 93.7934Z" fill="#FFE8C6"/>
<path d="M122.295 96.8339C122.633 96.8805 122.854 96.7873 123.081 96.6941V99.9036C123.081 101.29 123.081 102.397 123.081 104.325C123.081 105.024 123.349 105.612 123.839 105.991C124.171 106.241 124.561 106.369 124.986 106.369C125.167 106.369 125.353 106.346 125.545 106.294C126.448 106.061 126.984 105.286 126.984 104.226L126.99 96.7756C127.782 97.1601 128.627 97.0436 129.244 96.4087C130.025 95.6048 129.972 94.4282 129.116 93.5486C128.266 92.6923 127.415 91.8244 126.547 90.9915C125.679 90.141 124.497 90.0944 123.67 90.8575C122.79 91.6846 121.899 92.5758 120.856 93.6709C120.344 94.2068 120.25 94.9816 120.594 95.733C120.821 96.1873 121.293 96.7582 122.295 96.8339Z" fill="#FFE8C6"/>
<path d="M127.619 108.07C123.978 108.07 120.338 108.07 116.697 108.07H111.233C110.552 108.07 109.952 108.297 109.55 108.705C109.195 109.066 109.008 109.55 109.02 110.068C109.043 111.204 109.929 111.967 111.228 111.967C113.948 111.973 116.668 111.973 119.388 111.973L121.462 111.967C123.53 111.967 125.604 111.961 127.677 111.973C128.458 111.973 129.029 111.711 129.419 111.158C129.856 110.534 129.902 109.812 129.559 109.125C129.198 108.431 128.539 108.07 127.619 108.07Z" fill="#FFE8C6"/>
<path d="M42.5164 93.7934C41.8465 94.5157 41.8931 95.6515 42.627 96.3913C43.2153 96.9913 44.0949 97.102 44.8347 96.7758V102.181C44.8347 102.834 44.8347 103.16 44.8463 104.36C44.8638 105.525 45.691 106.369 46.8093 106.369C46.8152 106.369 46.821 106.369 46.8268 106.369C47.887 106.364 48.6792 105.56 48.7607 104.43C48.7724 104.284 48.7724 104.139 48.7665 103.853V102.076C48.7665 100.242 48.7665 98.9892 48.7724 96.7641C49.5879 97.1602 50.4791 97.0204 51.0849 96.3447C51.813 95.5292 51.7431 94.4108 50.9101 93.5546C50.048 92.6808 49.1801 91.8012 48.2947 90.945C47.4676 90.1411 46.3084 90.0712 45.522 90.7935C44.5667 91.6789 43.5823 92.6633 42.5164 93.7934Z" fill="#FFE8C6"/>
<path d="M55.308 96.8339C55.64 96.8805 55.8672 96.7873 56.0943 96.6941V99.9036C56.0943 101.29 56.0943 102.397 56.0943 104.325C56.0943 105.024 56.3623 105.612 56.8516 105.991C57.1836 106.241 57.5739 106.369 57.9991 106.369C58.1797 106.369 58.3661 106.346 58.5583 106.294C59.4612 106.061 59.9971 105.286 59.9971 104.226L60.0029 96.7756C60.7892 97.1601 61.6397 97.0436 62.2571 96.4087C63.0377 95.6048 62.9853 94.4282 62.129 93.5486C61.2785 92.6923 60.4281 91.8244 59.5602 90.9915C58.6923 90.141 57.5098 90.0944 56.6827 90.8575C55.8031 91.6846 54.9119 92.5758 53.8692 93.6709C53.3566 94.2068 53.2634 94.9816 53.6071 95.733C53.8342 96.1873 54.3061 96.7582 55.308 96.8339Z" fill="#FFE8C6"/>
<path d="M60.632 108.07C56.9914 108.07 53.3508 108.07 49.7102 108.07H44.2464C43.5649 108.07 42.9649 108.297 42.563 108.705C42.2077 109.066 42.0213 109.55 42.0329 110.068C42.0562 111.204 42.9416 111.967 44.2406 111.967C46.9608 111.973 49.6811 111.973 52.4014 111.973L54.475 111.967C56.5429 111.967 58.6166 111.961 60.6903 111.973C61.4708 111.973 62.0417 111.711 62.4319 111.158C62.8688 110.534 62.9154 109.812 62.5717 109.125C62.2106 108.431 61.5524 108.07 60.632 108.07Z" fill="#FFE8C6"/>
<path d="M78.6254 39.2483V44.6073C78.6254 45.2888 78.6254 45.6034 78.6428 46.8266C78.6603 47.9974 79.4816 48.8421 80.6058 48.8421C80.6058 48.8421 80.6117 48.8421 80.6175 48.8421C81.6776 48.8304 82.4757 48.0266 82.5572 46.8907C82.5689 46.7567 82.563 46.6169 82.563 46.4771L82.5689 39.2367C83.3902 39.6328 84.2756 39.4872 84.8755 38.8173C85.6095 38.0018 85.5396 36.8776 84.7008 36.0271C83.8387 35.1476 82.9708 34.268 82.0854 33.4117C81.2641 32.6195 80.07 32.5555 79.3127 33.2603C78.3399 34.1573 77.3555 35.1418 76.3012 36.266C75.6372 36.9766 75.6896 38.1416 76.4119 38.8639C76.9944 39.4464 77.8739 39.5804 78.6254 39.2483Z" fill="#FFE8C6"/>
<path d="M89.0928 39.2949C89.3899 39.3066 89.6462 39.2542 89.8792 39.1551V42.3647C89.8792 43.751 89.8792 44.852 89.8792 46.7858C89.885 47.4848 90.153 48.0732 90.6423 48.4518C90.9685 48.7022 91.3646 48.8304 91.784 48.8304C91.9645 48.8304 92.1509 48.8071 92.3432 48.7547C93.246 48.5217 93.7819 47.747 93.7878 46.6868V39.2309C94.5683 39.6153 95.4304 39.5046 96.0478 38.8697C96.8342 38.06 96.776 36.8834 95.9197 36.0097C95.0692 35.1417 94.2188 34.2855 93.3567 33.4409C92.4771 32.5846 91.318 32.5322 90.485 33.3127C89.6229 34.1107 88.7259 35.0078 87.6657 36.1262C87.159 36.6679 87.0599 37.4368 87.4094 38.1882C87.6191 38.6542 88.091 39.2309 89.0928 39.2949Z" fill="#FFE8C6"/>
<path d="M78.0254 54.446H87.8462C90.0597 54.446 92.2674 54.446 94.4809 54.4518C95.2672 54.4518 95.8323 54.1897 96.2167 53.6422C96.6652 53.0131 96.7118 52.2908 96.3623 51.6093C96.0012 50.8986 95.343 50.5375 94.4226 50.5375H78.037C77.3555 50.5375 76.7555 50.7705 76.3536 51.184C76.0041 51.5452 75.8177 52.0287 75.8293 52.5471C75.8468 53.6829 76.7264 54.446 78.0254 54.446Z" fill="#FFE8C6"/>
</svg>
