<svg width="231" height="120" viewBox="0 0 231 120" fill="none" xmlns="http://www.w3.org/2000/svg">
<path d="M83.6276 91.6897C75.823 91.6897 69.473 98.0395 69.473 105.845C69.473 113.65 75.823 120 83.6276 120C91.4321 120 97.7821 113.65 97.7821 105.845C97.7821 98.0395 91.4321 91.6897 83.6276 91.6897ZM83.6276 110.814C80.8877 110.814 78.6591 108.585 78.6591 105.845C78.6591 103.105 80.8877 100.876 83.6276 100.876C86.3674 100.876 88.596 103.105 88.596 105.845C88.596 108.585 86.3674 110.814 83.6276 110.814Z" fill="#00F0FF"/>
<path d="M52.2311 91.6897C44.4265 91.6897 38.0765 98.0395 38.0765 105.845C38.0765 113.65 44.4265 120 52.2311 120C60.0357 120 66.3856 113.65 66.3856 105.845C66.3856 98.0395 60.0357 91.6897 52.2311 91.6897ZM52.2311 110.814C49.4912 110.814 47.2626 108.585 47.2626 105.845C47.2626 103.105 49.4912 100.876 52.2311 100.876C54.971 100.876 57.1995 103.105 57.1995 105.845C57.1995 108.585 54.971 110.814 52.2311 110.814Z" fill="#00F0FF"/>
<path d="M193.9 91.6897C186.096 91.6897 179.746 98.0395 179.746 105.845C179.746 113.65 186.096 120 193.9 120C201.705 120 208.055 113.65 208.055 105.845C208.055 98.0395 201.705 91.6897 193.9 91.6897ZM193.9 110.814C191.16 110.814 188.932 108.585 188.932 105.845C188.932 103.105 191.16 100.876 193.9 100.876C196.64 100.876 198.869 103.105 198.869 105.845C198.869 108.585 196.64 110.814 193.9 110.814Z" fill="#00F0FF"/>
<path d="M33.8471 90.5407C31.4998 89.5771 28.8168 90.6973 27.8523 93.0432L23.3083 104.099C22.3444 106.445 23.4646 109.129 25.8106 110.093C26.3826 110.328 26.974 110.439 27.5553 110.439C29.3625 110.439 31.076 109.366 31.8055 107.591L36.3489 96.5351C37.3134 94.1888 36.1932 91.505 33.8471 90.5407Z" fill="#00F0FF"/>
<path d="M230.441 77.931C230.441 77.8914 230.444 77.8517 230.443 77.8121C230.438 77.6562 230.426 77.5018 230.406 77.3491C230.406 77.3481 230.406 77.3471 230.406 77.3461C230.363 77.0287 230.288 76.72 230.183 76.4234C230.181 76.4186 230.18 76.4135 230.178 76.4087L222.452 54.7939C219.629 46.8966 212.097 41.5903 203.71 41.5903H173.081C170.649 41.5903 168.638 43.4865 168.496 45.9143L166.326 82.9095C166.321 82.9992 166.317 83.0889 166.317 83.1786V101.252H106.617C104.081 101.252 102.024 103.308 102.024 105.845C102.024 108.381 104.081 110.438 106.617 110.438H170.91C173.447 110.438 175.504 108.381 175.504 105.845V83.3132L177.412 50.7764H180.966L181.32 59.203C181.714 68.5701 188.713 76.4774 197.963 78.0047L220.947 81.7999L219.434 101.252H217.309C214.772 101.252 212.716 103.308 212.716 105.845C212.716 108.381 214.772 110.438 217.309 110.438H223.683C226.082 110.438 228.077 108.592 228.263 106.201L230.432 78.3108C230.433 78.3013 230.432 78.2917 230.433 78.2823C230.441 78.1644 230.442 78.0476 230.441 77.931ZM190.499 58.8173L190.161 50.7764H203.71C208.226 50.7764 212.282 53.6336 213.802 57.8862L218.901 72.1514L199.46 68.9412C194.479 68.1189 190.711 63.8611 190.499 58.8173Z" fill="#00F0FF"/>
<path d="M161.322 83.1785V37.9877H177.45C179.857 37.9877 181.856 36.1281 182.03 33.7262L183.561 12.5797C183.653 11.3074 183.212 10.0541 182.344 9.11999C181.474 8.18591 180.256 7.65511 178.98 7.65511H161.322V4.59313C161.322 2.05664 159.265 0 156.729 0H4.59305C2.05664 0 0 2.05664 0 4.59313V83.1785C0 85.715 2.05664 87.7716 4.59305 87.7716H156.729C159.265 87.7716 161.322 85.715 161.322 83.1785ZM174.043 16.8412L173.177 28.8016H161.322V16.8412H174.043ZM152.136 78.5854H9.1861V9.18618H152.136V12.2482V33.3946V78.5854Z" fill="#00F0FF"/>
<path d="M107.117 27.625C106.377 26.3429 104.737 25.9037 103.457 26.6431L97.2831 30.204L97.9408 24.5103C98.1108 23.0401 97.0575 21.711 95.5866 21.541C94.1163 21.3705 92.7879 22.4253 92.6185 23.895L91.5046 33.5374L83.3405 38.2468V28.822L91.1357 23.0394C92.3247 22.158 92.5735 20.4797 91.6921 19.2915C90.8094 18.1032 89.1329 17.8543 87.9439 18.7357L83.3405 22.1504V15.0232C83.3405 13.5434 82.1403 12.344 80.6607 12.344C79.1816 12.344 77.9814 13.5434 77.9814 15.0232V22.1507L73.3774 18.7357C72.1891 17.8546 70.5119 18.1036 69.6292 19.2915C68.7478 20.4797 68.9966 22.158 70.1856 23.0394L77.9814 28.822V38.237L69.8349 33.5173L68.7397 23.8726C68.5721 22.4025 67.2438 21.3492 65.7754 21.5129C64.3051 21.68 63.2486 23.0069 63.4155 24.4774L64.0625 30.1729L57.8951 26.6001C56.6155 25.8581 54.9746 26.2947 54.2338 27.5753C53.4918 28.8555 53.9288 30.4949 55.2084 31.2365L61.3764 34.8097L56.1136 37.0814C54.7545 37.6678 54.1288 39.2444 54.7158 40.6031C55.1527 41.6157 56.1398 42.2212 57.1769 42.2212C57.5313 42.2212 57.8914 42.1506 58.2371 42.0011L67.1487 38.154L75.3072 42.8805L67.1406 47.5914L58.2365 43.728C56.8781 43.1393 55.3003 43.7628 54.7114 45.1196C54.1226 46.4772 54.7458 48.0549 56.1023 48.644L61.3608 50.9253L55.1871 54.4866C53.9056 55.2259 53.4649 56.8642 54.2044 58.1463C54.7008 59.0064 55.6016 59.487 56.528 59.487C56.9825 59.487 57.4432 59.3716 57.8645 59.1282L64.0388 55.5669L63.3812 61.2611C63.2111 62.7312 64.2645 64.0603 65.7347 64.2304C65.8391 64.2423 65.9429 64.2483 66.0454 64.2483C67.3882 64.2483 68.5459 63.2417 68.7034 61.8763L69.8174 52.2334L77.9814 47.5241V56.9489L70.1856 62.7319C68.9966 63.6133 68.7478 65.2916 69.6292 66.4798C70.1556 67.1885 70.9645 67.563 71.7834 67.563C72.3385 67.563 72.8973 67.3915 73.3774 67.0357L77.9814 63.6204V70.7481C77.9814 72.2279 79.1816 73.4273 80.6607 73.4273C82.1403 73.4273 83.3405 72.2279 83.3405 70.7481V63.6207L87.9439 67.0357C88.424 67.3915 88.9828 67.563 89.5373 67.563C90.3568 67.563 91.1658 67.1885 91.6915 66.4802C92.5735 65.2916 92.3247 63.6137 91.1357 62.7319L83.3405 56.949V47.5344L91.4864 52.2537L92.5823 61.8984C92.7379 63.266 93.8969 64.2756 95.2415 64.2756C95.3422 64.2756 95.4441 64.2697 95.5472 64.258C97.0168 64.091 98.0739 62.7637 97.9064 61.2936L97.2594 55.5983L103.426 59.1708C103.849 59.416 104.311 59.5323 104.767 59.5323C105.691 59.5323 106.591 59.0531 107.087 58.1956C107.829 56.9155 107.393 55.276 106.113 54.5344L99.9455 50.9615L105.208 48.6899C106.567 48.1035 107.193 46.5269 106.607 45.1682C106.02 43.8102 104.442 43.1834 103.085 43.7702L94.1726 47.6172L86.0142 42.8906L94.1813 38.1795L103.085 42.0433C103.433 42.194 103.795 42.2654 104.151 42.2654C105.187 42.2654 106.172 41.6617 106.611 40.6517C107.199 39.2945 106.576 37.7164 105.219 37.1273L99.9612 34.8456L106.134 31.2847C107.416 30.5454 107.856 28.9071 107.117 27.625Z" fill="#00F0FF"/>
</svg>
