<svg width="261" height="120" viewBox="0 0 261 120" fill="none" xmlns="http://www.w3.org/2000/svg">
<path d="M12 103.714H21.4286C22.8571 112.857 30.8571 120 40.2857 120C49.7143 120 57.7143 112.857 59.1429 103.714H61.1429C62.5714 112.857 70.5714 120 80 120C89.4286 120 97.4286 112.857 98.8571 103.714H108.286V85.1429H114V103.714H126.857C128.286 112.857 136.286 120 145.714 120C155.143 120 163.143 112.857 164.571 103.714H168.571H180.286H184.571H212C213.429 112.857 221.429 120 230.857 120C240.286 120 248.286 112.857 249.714 103.714H253.714C255.429 103.714 257.143 102.857 258.571 101.714C260 100.286 260.571 98.2857 260.286 96.2857L257.429 58C256.857 52.8571 253.143 48.8571 248.286 48.2857L236 47.1429L229.143 21.1429C228.286 16.8571 224.857 13.4286 220.571 12.8571L216 12.5714C209.143 6.28572 197.429 1.71429 183.429 0.285715L180.571 0V9.42857V84.5714H174.857V0H0V85.1429H12.2857V103.714H12ZM178.857 98H164.857C164.571 95.4286 163.429 92.8571 162 90.5714H178.857V98ZM145.714 108.286C141.714 108.286 138.286 104.857 138.286 100.857C138.286 96.8572 141.714 93.4286 145.714 93.4286C149.714 93.4286 153.143 96.8572 153.143 100.857C153.143 104.857 150 108.286 145.714 108.286ZM120 90.5714H129.714C128.286 92.8571 127.429 95.1429 126.857 98H120V90.5714ZM5.71429 6H168.571V79.4286H5.71429V6ZM80 108.286C76 108.286 72.5714 104.857 72.5714 100.857C72.5714 96.8572 76 93.4286 80 93.4286C84 93.4286 87.4286 96.8572 87.4286 100.857C87.4286 104.857 84 108.286 80 108.286ZM40.2857 108.286C36.2857 108.286 32.8571 104.857 32.8571 100.857C32.8571 96.8572 36.2857 93.4286 40.2857 93.4286C44.2857 93.4286 47.7143 96.8572 47.7143 100.857C47.7143 104.857 44.2857 108.286 40.2857 108.286ZM18 85.1429H29.4286C25.1429 88 22.2857 92.5714 21.4286 98H18V85.1429ZM51.1429 85.1429H69.1429C64.8571 88 62 92.5714 61.1429 98H59.1429C58.2857 92.5714 55.4286 88 51.1429 85.1429ZM90.8571 85.1429H102.286V98H98.8571C98 92.5714 95.1429 88 90.8571 85.1429ZM252 58.5714L254.857 96.8571C254.857 97.4286 254.571 97.7143 254.571 97.7143L254.286 98H250.286C248.857 88.8571 240.857 81.7143 231.429 81.7143C230.571 81.7143 229.714 81.7143 228.857 82L227.143 52.8571H234.286L248.286 54.2857C250 54.5714 251.714 56.2857 252 58.5714ZM231.143 108.286C227.143 108.286 223.714 104.857 223.714 100.857C223.714 96.8572 227.143 93.4286 231.143 93.4286C235.143 93.4286 238.571 96.8572 238.571 100.857C238.571 104.857 235.143 108.286 231.143 108.286ZM195.143 25.7143H215.143L220.286 46.8571H195.143V25.7143ZM224.571 25.7143L230.286 46.8571H226.286L221.429 25.7143H224.571ZM195.143 52.8571H221.143L223.143 83.7143C220.857 84.8571 218.571 86.5714 216.857 88.5714H195.143V52.8571ZM220 20H189.143V53.1429V94.2857H213.143C212.571 95.4286 212.286 96.5714 212.286 98H186.286V16L220.286 18.8571C221.143 18.8571 221.714 19.4286 222.286 19.7143H220V20ZM186.286 10V6.57143C192.857 7.42857 198.571 9.14286 203.429 11.4286L186.286 10Z" fill="#FF7171"/>
<path d="M111.814 13H87.6936C87.3103 13.0006 86.9339 13.1017 86.6019 13.2932C86.2699 13.4847 85.9939 13.7599 85.8014 14.0914L75.7369 31.4882C75.5448 31.8205 75.4436 32.1975 75.4435 32.5814C75.4433 32.9652 75.5443 33.3423 75.7361 33.6747C75.9279 34.0072 76.2038 34.2832 76.5362 34.4752C76.8686 34.6672 77.2456 34.7683 77.6294 34.7683H83.7763L72.0333 46.4028C71.7257 46.7078 71.5156 47.0973 71.4297 47.5219C71.3439 47.9465 71.3861 48.387 71.551 48.7876C71.7159 49.1881 71.9961 49.5306 72.356 49.7717C72.716 50.0127 73.1394 50.1414 73.5726 50.1414H79.5655L64.5414 69.6435C64.159 70.135 63.9681 70.7488 64.0043 71.3705C64.0405 71.9922 64.3013 72.5797 64.7382 73.0235C65.175 73.4674 65.7582 73.7375 66.3793 73.7836C67.0004 73.8297 67.6171 73.6487 68.1147 73.2741L100.222 49.3369C100.59 49.0624 100.862 48.6789 101 48.2408C101.138 47.8027 101.134 47.3323 100.99 46.8963C100.845 46.4604 100.567 46.0811 100.194 45.8123C99.8221 45.5435 99.3745 45.3988 98.9152 45.3988H94.1439L109.861 31.4803C110.193 31.1861 110.428 30.7979 110.534 30.3672C110.64 29.9365 110.612 29.4837 110.455 29.0689C110.298 28.6542 110.018 28.2971 109.653 28.0452C109.288 27.7932 108.855 27.6583 108.411 27.6583H101.059L113.266 16.8204C113.597 16.5259 113.831 16.1377 113.937 15.7071C114.043 15.2766 114.015 14.824 113.857 14.4096C113.7 13.9952 113.42 13.6384 113.055 13.3867C112.69 13.1349 112.258 13.0001 111.814 13ZM95.4919 28.0841C95.2358 28.3115 95.0549 28.6115 94.9732 28.9441C94.8914 29.2767 94.9128 29.6264 95.0344 29.9466C95.1561 30.2668 95.3722 30.5424 95.6541 30.737C95.936 30.9315 96.2705 31.0357 96.613 31.0357H105.269L88.5706 45.8233C88.314 46.0505 88.1327 46.3504 88.0506 46.6831C87.9686 47.0159 87.9897 47.3657 88.1111 47.6861C88.2326 48.0066 88.4487 48.2825 88.7307 48.4772C89.0127 48.6719 89.3473 48.7762 89.69 48.7762H95.3231L70.7895 67.0672L84.3357 49.4834C84.5282 49.2334 84.6469 48.9346 84.6782 48.6207C84.7096 48.3068 84.6524 47.9904 84.5132 47.7073C84.3739 47.4243 84.1582 47.1859 83.8904 47.0191C83.6225 46.8524 83.3134 46.764 82.9979 46.764H76.4674L89.0686 34.2792C89.3063 34.0436 89.4687 33.7428 89.5351 33.4148C89.6015 33.0868 89.5689 32.7465 89.4416 32.437C89.3142 32.1275 89.0978 31.8629 88.8197 31.6767C88.5417 31.4904 88.2146 31.391 87.88 31.391H79.6951L88.381 16.3774H108.678L95.4919 28.0841Z" fill="#FF7171"/>
</svg>
